<svg width="335" height="367" viewBox="0 0 335 367" fill="none" xmlns="http://www.w3.org/2000/svg">
<path d="M118.8 194C108.7 194 100.4 185.8 100.4 175.6C100.4 165.5 108.6 157.2 118.8 157.2C129 157.2 137.2 165.4 137.2 175.6C137.2 185.7 128.9 194 118.8 194ZM118.8 168.7C115 168.7 111.9 171.8 111.9 175.6C111.9 179.4 115 182.5 118.8 182.5C122.6 182.5 125.7 179.4 125.7 175.6C125.7 171.8 122.6 168.7 118.8 168.7Z" fill="white"/>
<path d="M210.7 194C200.6 194 192.3 185.8 192.3 175.6C192.3 165.5 200.5 157.2 210.7 157.2C220.8 157.2 229.1 165.4 229.1 175.6C229 185.7 220.8 194 210.7 194ZM210.7 168.7C206.9 168.7 203.8 171.8 203.8 175.6C203.8 179.4 206.9 182.5 210.7 182.5C214.5 182.5 217.6 179.4 217.6 175.6C217.6 171.8 214.5 168.7 210.7 168.7Z" fill="white"/>
<path d="M22.6 321.8C19.4 321.9 16.8 319.7 16.8 317.1L14.6 195.5C14.6 192.8 17.1 190.6 20.3 190.6C23.5 190.6 26.1 192.7 26.1 195.3L28.3 316.9C28.3 319.6 25.8 321.8 22.6 321.8Z" fill="white"/>
<path d="M299.1 327.6C302.1 327.7 304.6 325.4 304.7 322.6L307 195.6C307 192.8 304.6 190.5 301.6 190.4C298.6 190.3 296.1 192.6 296 195.4L293.7 322.4C293.7 325.3 296.1 327.6 299.1 327.6Z" fill="white"/>
<path d="M131.4 227.6C128.2 227.6 125.7 225 125.7 221.9V196.3C125.7 193.1 128.3 190.6 131.4 190.6C134.6 190.6 137.1 193.2 137.1 196.3V221.9C137.2 225.1 134.6 227.6 131.4 227.6Z" fill="white"/>
<path d="M195.3 227.6C192.1 227.6 189.6 225 189.6 221.9V196.3C189.6 193.1 192.2 190.6 195.3 190.6C198.4 190.6 201 193.2 201 196.3V221.9C201.1 225.1 198.5 227.6 195.3 227.6Z" fill="white"/>
<path d="M28.7 202C12.9 202 0 189.1 0 173.3C0 157.5 12.9 144.6 28.7 144.6C31.9 144.6 34.4 147.2 34.4 150.3C34.4 153.4 31.8 156 28.7 156C19.2 156 11.5 163.7 11.5 173.2C11.5 182.7 19.2 190.4 28.7 190.4C31.9 190.4 34.4 193 34.4 196.1C34.5 199.5 31.9 202 28.7 202Z" fill="white"/>
<path d="M293.1 202C289.9 202 287.4 199.4 287.4 196.3C287.4 193.1 290 190.6 293.1 190.6C302.6 190.6 310.3 182.9 310.3 173.4C310.3 163.9 302.6 156.2 293.1 156.2C289.9 156.2 287.4 153.6 287.4 150.5C287.4 147.4 290 144.8 293.1 144.8C308.9 144.8 321.8 157.7 321.8 173.5C321.8 189.3 308.9 202 293.1 202Z" fill="white"/>
<path d="M43.6 343.4C29.1 343.4 17.4 331.9 17.4 317.7C17.4 314.5 20 312 23.3 312C26.6 312 29.2 314.6 29.2 317.7C29.2 325.5 35.7 331.9 43.7 331.9C51.7 331.9 58.2 325.5 58.2 317.7C58.2 314.5 60.8 312 64.1 312C67.3 312 70 314.6 70 317.7C69.9 331.8 58.1 343.4 43.6 343.4Z" fill="white"/>
<path d="M140.2 236.4C132.2 236.4 125.7 229.9 125.7 221.9C125.7 218.7 128.3 216.2 131.4 216.2C134.6 216.2 137.1 218.8 137.1 221.9C137.1 223.6 138.5 224.9 140.1 224.9C141.7 224.9 143.1 223.5 143.1 221.9C143.1 218.7 145.7 216.2 148.8 216.2C151.9 216.2 154.5 218.8 154.5 221.9C154.7 229.9 148.2 236.4 140.2 236.4Z" fill="white"/>
<path d="M131.4 275.4C121.3 275.4 113 267.2 113 257C113 254.9 114.7 253.2 116.8 253.2C118.9 253.2 120.6 254.9 120.6 257C120.6 262.9 125.4 267.7 131.3 267.7C137.2 267.7 142 262.9 142 257C142 254.9 143.7 253.2 145.8 253.2C147.9 253.2 149.6 254.9 149.6 257C149.8 267.1 141.6 275.4 131.4 275.4Z" fill="white"/>
<path d="M160.9 275.4C150.8 275.4 142.5 267.2 142.5 257C142.5 254.9 144.2 253.2 146.3 253.2C148.4 253.2 150.1 254.9 150.1 257C150.1 262.9 154.9 267.7 160.8 267.7C166.7 267.7 171.5 262.9 171.5 257C171.5 254.9 173.2 253.2 175.3 253.2C177.4 253.2 179.1 254.9 179.1 257C179.3 267.1 171 275.4 160.9 275.4Z" fill="white"/>
<path d="M190 275.4C179.9 275.4 171.6 267.2 171.6 257C171.6 254.9 173.3 253.2 175.4 253.2C177.5 253.2 179.2 254.9 179.2 257C179.2 262.9 184 267.7 189.9 267.7C195.8 267.7 200.6 262.9 200.6 257C200.6 254.9 202.3 253.2 204.4 253.2C206.5 253.2 208.2 254.9 208.2 257C208.3 267.1 200.1 275.4 190 275.4Z" fill="white"/>
<path d="M163.4 240.2C158.5 240.2 153.8 239 150.2 236.8C145.8 234.1 143.2 230.1 143.2 225.7C143.2 222.5 145.8 220 148.9 220C152.1 220 154.6 222.5 154.6 225.7C154.9 226.6 158 228.8 163.3 228.8C168.6 228.8 171.7 226.6 172 225.7C172 222.6 174.6 220 177.7 220C180.9 220 183.4 222.6 183.4 225.7C183.4 230.1 180.9 234.1 176.4 236.8C173 239 168.3 240.2 163.4 240.2Z" fill="white"/>
<path d="M186.6 236.4C178.6 236.4 172.1 229.9 172.1 221.9C172.1 218.7 174.7 216.2 177.8 216.2C181 216.2 183.5 218.8 183.5 221.9C183.5 223.6 184.9 224.9 186.5 224.9C188.2 224.9 189.5 223.5 189.5 221.9C189.5 218.7 192.1 216.2 195.2 216.2C198.3 216.2 200.9 218.8 200.9 221.9C201.1 229.9 194.6 236.4 186.6 236.4Z" fill="white"/>
<path d="M279.4 343.4C265.3 343.4 253.7 331.9 253.7 317.7C253.7 314.5 256.3 312 259.4 312C262.6 312 265.1 314.6 265.1 317.7C265.1 325.5 271.5 331.9 279.3 331.9C287.1 331.9 293.5 325.5 293.5 317.7C293.5 314.5 296.1 312 299.2 312C302.4 312 304.9 314.6 304.9 317.7C305 331.8 293.5 343.4 279.4 343.4Z" fill="white"/>
<path d="M81.3 353.3C67.2 353.3 55.6 341.8 55.6 327.6C55.6 324.4 58.2 321.9 61.3 321.9C64.5 321.9 67 324.5 67 327.6C67 335.4 73.4 341.8 81.2 341.8C89 341.8 95.4 335.4 95.4 327.6C95.4 324.4 98 321.9 101.1 321.9C104.3 321.9 106.8 324.5 106.8 327.6C106.9 341.8 95.4 353.3 81.3 353.3Z" fill="white"/>
<path d="M121.1 363.3C107 363.3 95.4 351.8 95.4 337.6C95.4 334.4 98 331.9 101.1 331.9C104.3 331.9 106.8 334.5 106.8 337.6C106.8 345.4 113.2 351.8 121 351.8C128.8 351.8 135.2 345.4 135.2 337.6C135.2 334.4 137.8 331.9 140.9 331.9C144.1 331.9 146.6 334.5 146.6 337.6C146.8 351.8 135.3 363.3 121.1 363.3Z" fill="white"/>
<path d="M160.9 366.7C146.8 366.7 135.2 355.2 135.2 341C135.2 337.8 137.8 335.3 140.9 335.3C144.1 335.3 146.6 337.9 146.6 341C146.6 348.8 153 355.2 160.8 355.2C168.6 355.2 175 348.8 175 341C175 337.8 177.6 335.3 180.7 335.3C183.8 335.3 186.4 337.9 186.4 341C186.6 355.2 175.1 366.7 160.9 366.7Z" fill="white"/>
<path d="M200.7 363.3C186.6 363.3 175 351.8 175 337.6C175 334.4 177.6 331.9 180.7 331.9C183.8 331.9 186.4 334.5 186.4 337.6C186.4 345.4 192.8 351.8 200.6 351.8C208.4 351.8 214.8 345.4 214.8 337.6C214.8 334.4 217.4 331.9 220.5 331.9C223.6 331.9 226.2 334.5 226.2 337.6C226.4 351.8 214.9 363.3 200.7 363.3Z" fill="white"/>
<path d="M240.6 353.3C226.5 353.3 214.9 341.8 214.9 327.6C214.9 324.4 217.5 321.9 220.6 321.9C223.7 321.9 226.3 324.5 226.3 327.6C226.3 335.4 232.7 341.8 240.5 341.8C248.3 341.8 254.7 335.4 254.7 327.6C254.7 324.4 257.3 321.9 260.4 321.9C263.6 321.9 266.1 324.5 266.1 327.6C266.2 341.8 254.7 353.3 240.6 353.3Z" fill="white"/>
<path d="M160.9 297.6C132 297.6 108.4 276.8 108.4 251.3C108.4 248.1 111 245.6 114.1 245.6H207.5C210.7 245.6 213.2 248.2 213.2 251.3C213.4 276.9 189.8 297.6 160.9 297.6ZM120.5 257.1C123.7 273.6 140.6 286.1 160.9 286.1C181.2 286.1 198.1 273.5 201.3 257.1H120.5Z" fill="white"/>
<path d="M118.8 202.4C116.7 202.4 115 200.7 115 198.6C115 196.5 116.7 194.8 118.8 194.8C123.4 194.8 127.2 191 127.2 186.4C127.2 184.3 128.9 182.6 131 182.6C133.1 182.6 134.8 184.3 134.8 186.4C134.9 195.2 127.7 202.4 118.8 202.4Z" fill="white"/>
<path d="M210.6 202.4C201.7 202.4 194.5 195.2 194.5 186.3C194.5 184.2 196.2 182.5 198.3 182.5C200.4 182.5 202.1 184.2 202.1 186.3C202.1 190.9 205.9 194.7 210.5 194.7C212.6 194.7 214.3 196.4 214.3 198.5C214.5 200.7 212.7 202.4 210.6 202.4Z" fill="white"/>
<path d="M306 179.4C305.3 180.1 304.4 180.5 303.3 180.5C301.2 180.5 299.5 178.8 299.5 176.7C299.5 174.5 298.6 172.3 297 170.7C295.4 169.1 293.3 168.2 291 168.2C288.9 168.2 287.2 166.5 287.2 164.4C287.2 162.3 288.9 160.6 291 160.6C295.3 160.6 299.3 162.3 302.4 165.3C305.5 168.3 307.1 172.4 307.1 176.7C307.1 177.8 306.7 178.7 306 179.4Z" fill="white"/>
<path d="M14.5 179.4C15.2 180.1 16.1 180.5 17.2 180.5C19.3 180.5 21 178.8 21 176.7C21 174.5 21.9 172.3 23.5 170.7C25.1 169.1 27.2 168.2 29.5 168.2C31.6 168.2 33.3 166.5 33.3 164.4C33.3 162.3 31.6 160.6 29.5 160.6C25.2 160.6 21.2 162.3 18.1 165.3C15 168.3 13.4 172.4 13.4 176.7C13.4 177.8 13.8 178.7 14.5 179.4Z" fill="white"/>
<path d="M88.9 163.7C88.3 163.7 87.7 163.6 87.2 163.4C85.7 162.9 84.5 161.9 83.8 160.4L76.5 145.5C75.8 144.1 75.7 142.5 76.2 141.1C76.7 139.7 77.8 138.5 79.1 137.8C80.6 137.1 115.2 120.9 152.5 132.1C154.9 132.8 156.6 135.1 156.6 137.6V152.4C156.6 154.2 155.7 156 154.2 157.1C152.7 158.2 150.8 158.5 149 157.9C119.2 148.1 91.8 162.8 91.5 163C90.9 163.5 89.9 163.7 88.9 163.7ZM89.5 146.1L91.6 150.4C101.1 146.4 121.7 139.8 145.2 145V142.1C121.7 136.4 99.4 142.5 89.5 146.1Z" fill="white"/>
<path d="M241.9 163.7C240.9 163.7 240 163.5 239.1 163C238.8 162.9 211.4 148.2 181.6 157.9C179.9 158.5 177.9 158.2 176.4 157.1C174.9 156 174 154.3 174 152.4V137.6C174 135.1 175.7 132.8 178.1 132.1C215.4 120.9 250.1 137.1 251.5 137.8C252.9 138.5 253.9 139.6 254.4 141.1C254.9 142.5 254.8 144.1 254.1 145.5L246.8 160.4C246.1 161.8 244.9 162.9 243.4 163.4C243 163.7 242.4 163.7 241.9 163.7ZM203.2 143.1C219 143.1 232.1 147.5 239.1 150.4L241.2 146.1C231.3 142.6 209 136.4 185.5 142.1V145C191.7 143.6 197.6 143.1 203.2 143.1Z" fill="white"/>
<path d="M17.9 157.9C15.4 157.9 13 156.2 12.3 153.6C12 152.5 5.5 127.4 24.8 91.9C26.3 89.1 29.8 88.1 32.6 89.6C35.4 91.1 36.4 94.6 34.9 97.4C26.1 113.7 23.4 127.3 22.7 135.9C22 145.1 23.4 150.6 23.4 150.7C24.2 153.8 22.4 156.9 19.4 157.7C18.9 157.8 18.4 157.9 17.9 157.9Z" fill="white"/>
<path d="M47.3 70.6C47.1 70.6 46.9 70.6 46.6 70.6C43.5 70.2 41.2 67.4 41.6 64.2C41.6 63.8 42.8 54.1 45.4 44.1C49.5 28.2 54.9 20.4 62.3 19.6C67.3 19 72.2 21.9 76.7 28.1C80.7 33.6 84.6 42 88.9 53.7C90 56.7 88.4 60 85.4 61C82.4 62.1 79.1 60.5 78.1 57.5C69.8 34.5 64.6 31.3 63.7 30.9C63 31.3 59.7 34.2 56.3 47.9C54 56.8 53 65.4 53 65.5C52.6 68.4 50.1 70.6 47.3 70.6Z" fill="white"/>
<path d="M33.5 100.4C31.3 100.4 29.2 99.1 28.2 97C15.5 68.3 13.4 54.4 21 49C28 44 38 50.7 41.2 52.9C46.5 56.4 50.9 60.5 51.1 60.6C53.4 62.7 53.6 66.4 51.5 68.7C49.4 71 45.7 71.2 43.4 69.1C43.4 69.1 40.1 66.1 36.2 63.3C32 60.3 29.4 59.2 28.1 58.8C28 60 28.2 62.4 29.2 66.5C30.8 72.9 34 81.6 38.8 92.3C40.1 95.2 38.8 98.6 35.9 99.9C35.1 100.3 34.3 100.4 33.5 100.4Z" fill="white"/>
<path d="M78.8 64.2C76.5 64.2 74.3 62.8 73.4 60.5C72.3 57.5 73.7 54.2 76.7 53.1C77.5 52.8 95.5 45.9 119.3 40.2C151.6 32.6 177.7 31.2 197 36.2C200.1 37 201.9 40.1 201.1 43.2C200.3 46.3 197.2 48.1 194.1 47.3C152.3 36.5 81.6 63.6 80.9 63.8C80.2 64.1 79.5 64.2 78.8 64.2Z" fill="white"/>
<path d="M282.6 64.2C282.1 64.2 281.7 64.1 281.2 64C278.1 63.2 276.3 60.1 277 57C283 33 282.4 17.4 275.4 13C268.3 8.6 252.3 13.4 231.4 26.1C214 36.8 199.2 49.3 199 49.4C196.6 51.4 193 51.1 190.9 48.7C188.9 46.3 189.2 42.7 191.6 40.6C192.2 40.1 207.2 27.5 225.3 16.4C236.1 9.8 245.8 5.1 254.1 2.5C265.6 -1.1 274.7 -0.8 281.4 3.3C293.5 10.9 295.7 29.4 288.1 59.9C287.5 62.5 285.1 64.2 282.6 64.2Z" fill="white"/>
<path d="M293.7 79.5C291.6 79.5 289.6 78.4 288.6 76.4C287.2 73.6 288.3 70.1 291.1 68.7C291.2 68.7 300.1 64.1 308.8 58.2C321 49.8 323.6 44.9 323.5 43.7C323.5 43.7 323.4 43.5 323.2 43.4C319 39.7 310.1 43.8 305.2 46.7C297.4 51.2 290.8 57.1 290.7 57.2C288.4 59.3 284.7 59.2 282.6 56.8C280.5 54.5 280.6 50.8 283 48.7C283.3 48.4 290.5 41.9 299.4 36.8C316.4 27 325.9 30.4 330.9 34.9C334 37.7 335.4 41.4 334.9 45.4C334 52.3 327.4 59.7 314.1 68.6C305.3 74.5 296.7 78.9 296.4 79C295.5 79.3 294.6 79.5 293.7 79.5Z" fill="white"/>
<path d="M32.7 182.9C30.2 182.9 27.8 181.2 27.2 178.6C26.4 175.5 28.2 172.4 31.3 171.6C31.5 171.5 47.3 167.1 53.6 155.3C56.8 149.2 56.9 142 54 133.7C52.9 130.7 54.5 127.4 57.5 126.4C60.5 125.3 63.8 126.9 64.8 129.9C68.8 141.3 68.5 151.7 63.7 160.7C55.1 177 35.1 182.5 34.3 182.7C33.7 182.8 33.2 182.9 32.7 182.9Z" fill="white"/>
<path d="M60.5 137.6C56 137.6 53 137.2 52.8 137.1C49.7 136.6 47.5 133.7 48 130.6C48.5 127.5 51.4 125.3 54.5 125.8C54.7 125.8 65.3 127.3 77.2 123.8C92.5 119.3 102.8 109 107.7 93C108.6 90 111.8 88.3 114.9 89.2C117.9 90.1 119.6 93.3 118.7 96.4C111 121.4 93.4 131.2 80 135C72.5 137 65.5 137.6 60.5 137.6Z" fill="white"/>
<path d="M150.3 129.4C133.8 129.4 123.6 121.2 117.8 113.9C111 105.4 108.8 96.4 108.7 96C108 92.9 109.9 89.8 112.9 89.1C116 88.4 119.1 90.3 119.8 93.3C120.1 94.5 126.9 120.6 154.6 117.7C166.4 116.5 174.4 112.2 178.3 105C181 100 180.8 95.2 180.8 95.1C180.6 91.9 182.9 89.2 186.1 88.9C189.3 88.7 192 91 192.3 94.2C192.4 95 192.8 102.4 188.4 110.5C184.4 117.9 175.5 127.1 155.8 129.1C153.9 129.3 152.1 129.4 150.3 129.4Z" fill="white"/>
<path d="M209.9 113.4C196.1 113.4 183.9 105 183.3 104.6C180.7 102.8 180.1 99.2 181.9 96.6C183.7 94 187.3 93.4 189.9 95.2C190.1 95.4 204.4 105.1 216.1 100.9C222.6 98.6 227.5 92.1 230.7 81.6C231.6 78.6 234.8 76.8 237.8 77.7C240.8 78.6 242.6 81.8 241.7 84.8C237.5 99.1 230.1 108.1 219.9 111.7C216.5 112.9 213.2 113.4 209.9 113.4Z" fill="white"/>
<path d="M299.2 156.1C298.4 156.1 297.6 155.9 296.8 155.6C293.9 154.3 292.6 150.9 293.9 148C295.2 145.2 296.2 142.3 297.1 139.3C306.2 107.4 289.8 73.1 289.7 72.7C288.3 69.8 289.5 66.4 292.4 65C295.3 63.6 298.7 64.8 300.1 67.7C300.9 69.3 318.5 106.4 308.2 142.4C307.2 145.9 305.9 149.4 304.4 152.7C303.5 154.8 301.4 156.1 299.2 156.1Z" fill="white"/>
<path d="M298.1 145.2C279 145.2 261.4 136.2 247.1 119C236.2 105.9 231 92.6 230.8 92C229.7 89 231.1 85.7 234.1 84.6C237.1 83.5 240.4 84.9 241.5 87.9C241.5 88 246.3 100.2 256.1 111.9C268.7 127 283.5 134.3 300 133.6C303.2 133.5 305.8 135.9 306 139.1C306.1 142.3 303.7 144.9 300.5 145.1C299.7 145.2 298.9 145.2 298.1 145.2Z" fill="white"/>
</svg>
